<svg width="204" height="146" viewBox="0 0 204 146" fill="none" xmlns="http://www.w3.org/2000/svg">
<g clip-path="url(#clip0_1733_2)">
<path d="M198.84 118.398C198.219 118.398 197.722 118.398 197.102 118.273C197.226 117.9 197.226 117.651 197.102 117.278C197.722 117.153 198.219 117.153 198.84 117.153C198.716 117.651 198.716 118.024 198.84 118.398Z" fill="white"/>
<path d="M16.3346 31.6357C16.7071 30.5154 16.4588 29.5196 15.7139 28.5237C16.5829 28.3992 17.3279 28.2748 17.9486 27.7769C19.066 29.0216 18.6935 30.7644 17.3279 31.8847C17.3279 31.5112 16.8312 31.5112 16.3346 31.6357Z" fill="white"/>
<path d="M198.219 23.0466C198.219 22.1752 198.219 21.3038 198.219 20.557C198.715 20.308 199.088 20.1835 199.46 19.9346C199.833 21.0549 200.329 22.1752 200.702 23.2955C199.957 23.171 199.088 23.171 198.219 23.0466Z" fill="white"/>
<path d="M112.801 143.791C113.174 143.045 112.305 142.298 112.801 141.551C113.05 141.8 113.298 141.8 113.546 141.8C113.298 142.422 113.919 143.045 113.546 143.667C113.298 143.418 113.05 143.542 112.801 143.791Z" fill="white"/>
<path d="M6.40227 29.1462C6.52643 30.2666 6.27812 30.7645 5.5332 30.5155C6.27812 31.7603 7.02304 33.0051 7.76795 34.3744C9.13363 35.1212 9.87855 34.9968 10.0027 33.8765C8.76117 32.2582 7.6438 30.64 6.40227 29.1462Z" fill="white"/>
<path d="M21.7971 10.4742C21.4246 9.85181 21.0521 9.35389 20.6797 8.73149C20.8038 8.48254 20.928 8.23358 20.928 7.98462C21.6729 8.60702 22.2937 9.22941 23.0386 9.85181C22.6661 10.1008 22.2937 10.2252 21.7971 10.4742Z" fill="white"/>
<path d="M118.069 4.33394C119.063 3.83602 120.428 3.71154 121.546 3.21362C122.042 3.46258 122.415 3.71154 122.911 3.9605C121.67 5.08081 120.056 5.45425 118.814 6.57456C118.566 5.82768 118.318 5.08081 118.069 4.33394Z" fill="white"/>
<path d="M2.4298 16.5737C2.05735 16.8227 1.43658 16.9472 1.06412 17.1961C0.815818 17.0717 0.691665 16.9472 0.443359 16.9472C0.93997 16.4493 1.68489 16.2003 2.1815 15.7024C2.30565 16.0758 2.30565 16.3248 2.4298 16.5737Z" fill="white"/>
<path d="M108.084 82.0498C111.436 84.5394 113.795 88.2738 115.037 92.1326C113.795 91.8837 112.802 92.5061 112.057 93.5019C110.071 90.6389 107.712 88.2738 104.98 86.2821C106.594 85.4107 107.712 84.166 108.084 82.0498Z" fill="white"/>
<path d="M64.0098 39.3535C64.6305 38.2332 65.7479 37.6108 67.1136 37.3618C67.1136 37.8597 67.3619 38.2332 67.8585 38.6066C66.9894 39.1045 66.2445 39.9759 65.7479 40.8472C65.2513 40.2248 64.7547 39.7269 64.0098 39.3535Z" fill="white"/>
<path d="M32.4746 45.0794C33.592 44.706 34.2127 43.8346 34.5852 42.5898C35.206 43.2122 35.7026 43.7102 36.5717 43.8346C36.1992 45.4529 34.8335 46.3242 32.9712 45.9508C33.2195 45.8263 32.8471 45.3284 32.4746 45.0794Z" fill="white"/>
<path d="M52.7116 54.7889C52.0908 53.4196 51.2217 52.2993 50.2285 50.93C51.0976 50.3076 51.5942 49.5607 52.0908 48.4404C53.2082 50.0587 54.698 51.8014 56.4361 53.0462C54.698 53.2951 53.8289 53.793 52.7116 54.7889Z" fill="white"/>
<path d="M67.4861 64.0004C67.3619 62.5066 66.8653 61.2618 65.8721 60.1415C66.2445 59.3946 66.4928 58.6478 66.4928 57.9009C68.8517 58.6478 70.8382 60.1415 72.328 62.2577C70.4657 62.7556 68.8517 63.378 67.4861 64.0004Z" fill="white"/>
<path d="M27.3849 62.5066C29.123 62.6311 30.8612 63.2535 32.1027 64.3738C31.6061 64.6227 31.3578 64.9962 31.3578 65.6186C29.9921 65.1207 28.6264 64.8717 27.2607 64.8717C27.6332 64.0003 27.7574 63.2535 27.3849 62.5066Z" fill="white"/>
<path d="M193.873 25.0384C193.501 24.7895 192.88 25.0384 192.508 24.7895C192.632 24.7895 192.632 24.665 192.632 24.5405C193.004 24.7895 193.377 24.5405 193.625 24.7895C193.749 24.7895 193.749 24.914 193.873 25.0384Z" fill="white"/>
<path d="M151.289 70.8466C150.792 70.5976 150.42 70.4732 149.923 70.3487C149.923 70.0997 149.923 69.9752 149.799 69.6018C150.42 69.8508 151.164 69.9752 151.785 69.9752C151.537 70.3487 151.413 70.4732 151.289 70.8466Z" fill="white"/>
<path d="M37.1924 25.4119C36.075 24.5405 34.8335 24.0426 33.4678 23.6692C33.2195 23.0468 32.8471 22.5489 32.4746 22.051C34.8335 21.6775 37.1924 21.9265 39.6755 22.6734C38.6822 23.6692 37.8132 24.5405 37.1924 25.4119Z" fill="white"/>
<path d="M158.986 79.4358C159.11 79.0624 159.855 78.9379 159.98 78.5645C160.476 78.6889 160.973 78.8134 161.469 78.9379C161.718 79.5603 161.221 79.9337 161.469 80.6806C160.6 80.1827 159.855 79.8093 158.986 79.4358Z" fill="white"/>
<path d="M11.1208 132.464C10.8725 132.339 10.7483 132.339 10.5 132.215C10.5 132.091 10.5 132.091 10.5 131.966C10.8725 131.966 11.1208 132.091 11.4932 132.091C11.2449 132.339 11.2449 132.464 11.1208 132.464Z" fill="white"/>
<path d="M32.4751 4.49927C32.351 5.74406 31.8543 6.98885 30.9853 7.86021C30.8611 7.48677 30.4887 7.36229 30.1162 7.36229" fill="white"/>
<path d="M66.2378 11.8616C65.1204 14.2267 62.7615 16.0938 61.6441 18.459C60.5267 18.5834 59.4094 18.7079 58.292 18.8324C59.0369 15.347 61.3958 12.484 62.1407 8.99854C63.5064 9.86989 64.8721 10.8657 66.2378 11.8616Z" fill="white"/>
<path d="M124.223 54.54C123.106 56.9051 121.989 59.1457 120.871 61.5108C119.754 61.6353 118.761 61.7598 117.768 62.0087C118.512 58.5233 119.257 55.0379 120.002 51.5525C121.368 52.5483 122.858 53.6686 124.223 54.54Z" fill="white"/>
<path d="M202.286 54.0578C201.168 53.4354 200.175 52.813 199.058 52.0661C200.175 50.9458 200.672 49.701 200.796 48.2073" fill="white"/>
<path d="M95.4199 59.0211C95.9165 57.6518 96.4131 56.407 96.9097 55.0378C97.7788 55.0378 98.5237 54.9133 99.2686 54.7888C99.2686 56.7805 99.3928 58.7722 99.3928 60.7638C97.903 60.1414 96.6614 59.519 95.4199 59.0211Z" fill="white"/>
<path d="M18.4455 138.937C19.0663 139.31 19.5629 140.306 20.3078 140.679C20.3078 141.177 20.3078 141.675 20.3078 142.173C19.1904 142.049 18.4455 141.177 17.3281 140.928C17.7006 140.306 18.073 139.684 18.4455 138.937Z" fill="white"/>
<path d="M102.373 100.597C102.994 100.473 103.739 100.722 104.359 100.597C104.484 100.846 104.732 100.971 104.856 101.22C104.111 101.593 103.118 101.469 102.373 101.842C102.373 101.469 102.373 101.095 102.373 100.597Z" fill="white"/>
<path d="M91.1996 59.27C91.1996 58.8966 90.5788 58.7721 90.7029 58.3987C90.8271 58.5232 90.9512 58.3987 91.0754 58.3987C91.0754 58.6476 91.572 58.8966 91.4479 59.1456C91.3237 59.1456 91.3237 59.1456 91.1996 59.27Z" fill="white"/>
<path d="M144.46 18.8143C144.46 18.6898 144.336 18.4409 144.336 18.3164C144.46 18.3164 144.46 18.3164 144.584 18.1919C144.708 18.4409 144.708 18.6898 144.833 18.9388C144.584 18.8143 144.584 18.8143 144.46 18.8143Z" fill="white"/>
<path d="M39.179 144.414C38.4341 145.161 37.4409 145.783 36.3235 145.908C36.4477 145.534 36.3235 145.285 36.0752 145.036C36.9443 144.663 37.565 144.04 38.1858 143.418C38.3099 143.916 38.6824 144.289 39.179 144.414Z" fill="white"/>
<path d="M96.9097 44.0836C94.7991 44.5815 94.0542 47.0711 91.9436 47.4445C92.1919 46.8221 92.0678 46.4487 91.6953 46.0752C93.4335 45.5773 94.0542 43.7101 95.7924 43.4612C95.6682 43.7101 96.0407 43.9591 96.9097 44.0836Z" fill="white"/>
<path d="M80.274 76.0747C80.7706 76.6971 81.1431 77.444 81.3914 78.1909C80.8948 78.3153 80.5223 78.5643 80.274 78.9377C79.6533 78.3153 79.2808 77.6929 78.7842 77.0705C79.4049 76.8216 79.9016 76.5726 80.274 76.0747Z" fill="white"/>
<path d="M181.118 66.8474C182.484 67.9677 183.974 68.7146 185.712 69.088C185.712 69.8349 185.712 70.7063 185.712 71.4531C183.353 71.2042 180.994 70.4573 179.132 69.2125C179.753 68.4656 180.498 67.5943 181.118 66.8474Z" fill="white"/>
<path d="M41.1653 111.427C42.6551 112.298 44.1449 113.045 45.6348 113.917C45.6348 114.663 45.7589 115.286 45.8831 116.033C43.6483 115.41 41.4136 114.788 39.0547 114.166C39.6755 113.17 40.4204 112.174 41.1653 111.427Z" fill="white"/>
<path d="M171.029 68.4815C171.029 68.2325 171.153 67.9836 171.402 67.7346C171.402 67.8591 171.526 67.8591 171.526 67.8591C171.402 68.1081 171.402 68.2325 171.402 68.4815C171.153 68.4815 171.153 68.4815 171.029 68.4815Z" fill="white"/>
<path d="M62.6436 36.1169C62.6436 35.9924 62.7677 35.9924 62.7677 35.8679H62.8919C62.8919 35.9924 62.8919 36.1169 62.8919 36.2414C62.7677 36.2414 62.7677 36.2414 62.6436 36.1169Z" fill="white"/>
<path d="M43.2756 60.8884C43.3998 60.3905 43.2756 59.7681 43.0273 59.3947C43.3998 59.2702 43.7723 59.1457 44.1447 59.0212C44.7655 59.6436 45.0138 60.3905 44.8896 61.1374C44.2689 60.8884 43.7723 60.8884 43.2756 60.8884Z" fill="white"/>
<path d="M22.7999 95.7335C20.3168 94.7377 17.9579 93.8663 15.4749 92.8705C15.3507 92.1236 15.3507 91.2523 15.2266 90.6299C18.9511 91.3768 22.6757 91.9992 26.4003 92.746C25.1588 93.8663 23.9173 94.8622 22.7999 95.7335Z" fill="white"/>
<path d="M184.19 32.0092C183.445 31.6358 182.948 31.0134 182.203 30.6399C182.203 30.391 182.203 30.142 182.327 29.8931C183.445 30.2665 184.314 30.8889 185.555 31.2623C185.059 31.5113 184.562 31.7603 184.19 32.0092Z" fill="white"/>
<path d="M87.7227 80.0581C88.0952 80.1826 88.5918 80.4315 88.9642 80.556C88.9642 80.805 88.9642 80.9295 88.8401 81.0539C88.0952 80.9295 87.4744 80.9295 86.7295 80.805C87.102 80.556 87.4744 80.3071 87.7227 80.0581Z" fill="white"/>
<path d="M13.4788 11.968C13.7271 12.217 14.472 12.0925 14.5961 12.3415C14.472 12.3415 14.3478 12.4659 14.2237 12.5904C13.9754 12.3415 13.4788 12.4659 13.2305 12.217C13.4788 12.217 13.4788 12.0925 13.4788 11.968Z" fill="white"/>
<path d="M29.2467 47.0713C29.3709 47.8181 29.495 48.6895 29.495 49.4364C29.1226 49.6853 28.7501 49.8098 28.3777 50.0588C27.881 49.0629 27.3844 47.9426 26.7637 46.9468C27.6327 46.9468 28.5018 47.0713 29.2467 47.0713Z" fill="white"/>
<path d="M119.63 102.091C119.506 103.46 119.63 104.829 119.754 106.323C118.761 106.323 118.016 106.572 117.147 107.195C117.023 105.327 116.65 103.211 115.781 101.344C117.271 102.091 118.264 102.215 119.63 102.091Z" fill="white"/>
<path d="M178.211 105.269C178.211 106.638 178.087 108.132 178.087 109.501C177.342 109.874 176.597 110.123 175.977 110.497C175.356 108.63 174.735 106.638 173.99 104.771C175.48 104.895 176.846 105.02 178.211 105.269Z" fill="white"/>
<path d="M20.8039 124.497C20.928 125.369 20.928 126.24 21.0522 126.987C20.928 127.236 20.6797 127.485 20.5556 127.734C20.3073 126.613 19.9348 125.493 19.6865 124.497C20.059 124.497 20.4314 124.497 20.8039 124.497Z" fill="white"/>
<path d="M72.3275 114.165C72.3275 114.539 72.3275 114.912 72.4517 115.286C72.3275 115.41 72.3275 115.41 72.2034 115.535C72.0792 115.037 71.9551 114.414 71.9551 113.917C72.0792 114.041 72.2034 114.041 72.3275 114.165Z" fill="white"/>
<path d="M138.377 9.85199C138.377 10.2254 138.377 10.4744 138.377 10.8478C138.253 10.8478 138.253 10.8478 138.129 10.9723C138.129 10.5989 138.005 10.1009 137.881 9.60303C138.129 9.72751 138.253 9.85199 138.377 9.85199Z" fill="white"/>
<path d="M136.515 93.1284C138.75 94.1243 141.233 94.6222 143.84 94.4977C144.585 95.4935 145.454 96.2404 146.323 96.8628C142.474 98.481 138.005 99.2279 133.411 98.9789C134.653 96.9873 135.646 94.9956 136.515 93.1284Z" fill="white"/>
<path d="M170.408 42.4655C168.918 41.7186 167.304 41.5941 165.814 42.092C165.566 41.0962 165.194 40.1004 164.945 39.1045C167.056 38.1087 169.167 37.8598 171.153 38.4821C170.905 39.7269 170.656 41.0962 170.408 42.4655Z" fill="white"/>
<path d="M174.186 20.093C172.945 21.0889 171.827 21.9602 170.586 22.9561C169.965 22.7071 169.344 22.5826 168.848 22.4581C170.089 20.7154 171.455 19.0972 172.696 17.3545C173.193 18.3503 173.69 19.2217 174.186 20.093Z" fill="white"/>
<path d="M173.388 132.962C174.381 133.46 175.499 133.833 176.616 134.207C176.492 134.705 176.492 135.203 176.74 135.825C175.375 135.327 173.636 134.829 172.022 134.705C172.892 134.082 173.14 133.709 173.388 132.962Z" fill="white"/>
<path d="M181.674 91.0668C180.68 91.6892 179.563 92.436 178.57 93.0584C178.073 92.8095 177.577 92.685 177.204 92.436C178.321 91.1912 179.563 89.9465 180.68 88.7017C180.929 89.573 181.301 90.3199 181.674 91.0668Z" fill="white"/>
<path d="M161.221 128.979C161.593 128.979 161.966 128.979 162.338 128.979C162.462 129.103 162.462 129.103 162.587 129.227C162.09 129.352 161.469 129.352 160.973 129.476C161.097 129.227 161.221 129.103 161.221 128.979Z" fill="white"/>
</g>
<path d="M84.1553 0C84.7761 2.3651 86.0176 4.60573 87.6316 6.5974C87.3833 7.71771 87.2591 8.83802 87.3833 9.95834C83.6587 7.96667 80.3066 4.97917 77.5752 1.24479C79.9341 0.871354 82.1688 0.497917 84.1553 0Z" fill="white"/>
<circle cx="109.713" cy="75.8463" r="62.3483" fill="#37D8A7"/>
<circle cx="109.713" cy="75.8462" r="52.064" fill="#5FE0B9"/>
<circle cx="109.713" cy="75.8462" r="41.137" fill="#7FE6C7"/>
<circle cx="109.713" cy="75.8464" r="30.8527" fill="#05CE91"/>
<g clip-path="url(#clip1_1733_2)">
<path d="M105.704 87.9334C105.403 88.2358 104.993 88.4045 104.567 88.4045C104.141 88.4045 103.731 88.2358 103.43 87.9334L94.3503 78.8522C93.408 77.91 93.408 76.382 94.3503 75.4415L95.4872 74.3043C96.4297 73.362 97.9559 73.362 98.8982 74.3043L104.567 79.9732L119.884 64.6554C120.827 63.7132 122.355 63.7132 123.295 64.6554L124.432 65.7926C125.375 66.7349 125.375 68.2626 124.432 69.2034L105.704 87.9334Z" fill="white"/>
</g>
<defs>
<clipPath id="clip0_1733_2">
<rect width="203.114" height="141.408" fill="white" transform="translate(0.443359 4.49927)"/>
</clipPath>
<clipPath id="clip1_1733_2">
<rect width="31.4955" height="31.4955" fill="white" transform="translate(93.6436 60.4199)"/>
</clipPath>
</defs>
</svg>
