<svg width="124" height="99" viewBox="0 0 124 99" fill="none" xmlns="http://www.w3.org/2000/svg">
<g clip-path="url(#clip0_441_508)">
<path d="M123.068 23.4423C123.134 28.0253 123.261 32.6028 123.242 37.1886C123.242 40.5946 123.012 43.9978 122.921 47.4011C122.843 50.2436 122.752 53.0861 122.785 55.9286C122.835 60.3441 122.941 64.7605 123.104 69.1779C123.322 75.1655 123.629 81.1503 123.878 87.1379C123.956 89.0394 124.006 90.9436 124 92.8479C123.999 93.7158 123.907 94.5812 123.723 95.4295C123.564 96.2441 123.142 96.9833 122.521 97.5328C121.901 98.0823 121.117 98.4113 120.292 98.4691C119.454 98.4967 118.629 98.2571 117.936 97.7847C117.243 97.3124 116.717 96.6316 116.434 95.8403C116.165 95.1134 116.025 94.345 116.019 93.5696C116.077 90.6827 116.182 87.7958 116.354 84.9116C116.617 80.4702 117.04 76.0066 117.231 71.5485C117.508 65.0224 117.657 58.5018 117.84 51.9591C117.867 51.1146 117.813 50.2696 117.677 49.4358C117.576 48.7703 117.331 48.1352 116.958 47.5757C116.584 47.0163 116.093 46.5462 115.518 46.1991C115.244 46.0002 115.059 45.701 115.003 45.3663C114.84 44.0145 114.699 42.6571 114.638 41.2996C114.414 36.1587 114.132 31.0289 114.043 25.8712C113.931 20.5122 114.214 15.1521 114.89 9.83494C115.225 7.30055 115.969 4.87998 117.408 2.72866C117.735 2.1846 118.142 1.69325 118.615 1.27132C119.08 0.888449 119.634 0.628841 120.225 0.51628C121.662 0.296985 122.439 1.00484 122.475 2.44552C122.636 8.50807 122.791 14.5697 122.94 20.6304C122.965 21.5686 122.94 22.5097 122.94 23.4479L123.068 23.4423ZM119.356 75.2404C119.356 72.5367 119.356 69.8358 119.356 67.1321C119.334 63.7261 119.284 60.32 119.243 56.914C119.237 56.8209 119.225 56.7282 119.207 56.6364C119.177 56.7268 119.155 56.8197 119.141 56.914C119.037 59.3309 118.936 61.7487 118.836 64.1674C118.667 68.2036 118.479 72.2397 118.338 76.2786C118.144 81.7508 117.972 87.2221 117.821 92.6925C117.799 93.1368 117.852 93.5817 117.978 94.0082C118.072 94.3053 118.363 94.5384 118.568 94.8021C118.797 94.5365 119.011 94.2585 119.21 93.9694C119.268 93.8155 119.291 93.6503 119.276 93.4864C119.307 92.8757 119.356 92.265 119.356 91.6543C119.362 86.1858 119.362 80.7145 119.356 75.2404Z" fill="#05CE91"/>
<path d="M11.2552 86.7466C11.103 88.9978 11.0228 91.2574 10.7765 93.4975C10.5717 95.3407 9.55604 96.6537 7.7323 97.2256C5.95562 97.7807 3.75828 96.6704 3.14391 94.7273C2.73592 93.4719 2.52128 92.1614 2.50741 90.841C2.50741 87.1408 2.60427 83.4349 2.83119 79.7375C3.2214 73.3529 3.77489 66.9684 4.19277 60.5838C4.53039 55.4022 4.81359 50.215 5.04237 45.0222C5.18627 41.8022 5.18627 38.5766 5.25269 35.3538C5.25269 35.1622 5.25269 34.9679 5.25269 34.7764C5.36892 33.2857 4.86802 32.2503 3.43449 31.5369C1.35062 30.5209 0.592348 28.5556 0.282397 26.3571C-0.165926 23.1398 0.00565433 19.9226 0.224281 16.7053C0.501023 12.8691 0.833114 9.03555 1.15414 5.20205C1.22886 4.31377 1.35062 3.43381 1.45578 2.5483C1.45326 2.40362 1.49164 2.26118 1.56648 2.13747C1.73735 1.98862 1.92279 1.85749 2.11997 1.74607C2.22754 1.89883 2.30633 2.07006 2.35243 2.25128C2.44099 4.19626 2.51755 6.13938 2.58213 8.08065C2.73157 12.5776 2.87824 17.0736 3.02215 21.5687C3.04429 22.2349 3.57563 22.5625 4.12912 22.2238C4.27302 22.1405 4.3256 21.8241 4.33391 21.6103C4.40586 19.373 4.46121 17.1356 4.52209 14.901C4.63463 10.7409 4.74902 6.57704 4.86525 2.40951C4.84755 2.24162 4.8569 2.07198 4.89293 1.90707C4.95104 1.76828 5.10602 1.67112 5.21671 1.55176C5.33571 1.66835 5.49346 1.7655 5.55988 1.90707C5.60255 2.06995 5.61567 2.2392 5.59862 2.40673C5.80894 8.69875 6.02019 14.9972 6.23236 21.3022C6.23236 21.6409 6.07185 22.1128 6.74433 22.0989C7.17605 22.0989 7.33103 21.9823 7.33656 21.5437C7.35317 20.3195 7.41682 19.0926 7.45833 17.8657C7.62437 12.8413 7.7895 7.81694 7.9537 2.79258C7.94268 2.52763 7.96124 2.26226 8.00905 2.00145C8.05056 1.83767 8.22491 1.70721 8.33837 1.56286C8.4546 1.70165 8.65386 1.84045 8.67323 1.9848C8.73411 2.53997 8.74241 3.09515 8.75625 3.65033C8.91123 9.61479 9.06067 15.5793 9.20457 21.5437C9.20457 22.0795 9.32911 22.3237 9.9241 22.3099C10.378 22.296 10.544 22.196 10.5578 21.7158C10.6049 19.7422 10.699 17.7741 10.7654 15.8004C10.9176 11.3284 11.0587 6.85648 11.2165 2.38452C11.2165 2.17078 11.341 1.80159 11.4628 1.7766C11.8336 1.69888 12.0163 1.9959 12.0661 2.33178C12.2266 3.64478 12.4065 4.955 12.5089 6.27354C12.8493 10.5401 13.1924 14.8066 13.4692 19.0787C13.6435 21.8185 13.6408 24.5583 13.1094 27.2759C12.7164 29.2968 11.6731 30.8346 9.82171 31.7396C8.78946 32.2475 8.30793 33.0109 8.33007 34.1379C8.38542 37.147 8.37435 40.1561 8.49888 43.1568C8.73503 48.7807 9.01178 54.4019 9.32911 60.0203C9.57818 64.3174 9.9324 68.6089 10.2313 72.9032C10.5136 76.956 10.7903 81.0107 11.0615 85.0672C11.0975 85.6223 11.0615 86.1775 11.0615 86.7327L11.2552 86.7466ZM5.66227 51.2318C5.59069 51.4526 5.53883 51.6792 5.50729 51.9092C5.33571 54.8849 5.1586 57.8634 5.01193 60.8392C4.73518 66.6991 4.4363 72.559 4.1817 78.4217C4.0627 81.1837 3.97691 83.9513 3.96861 86.7133C3.96861 88.7785 4.06547 90.8466 4.20384 92.909C4.23981 93.4198 4.58021 93.925 4.82928 94.4053C4.89058 94.4706 4.96748 94.5191 5.05271 94.5463C5.13794 94.5735 5.22868 94.5785 5.31634 94.5607C5.44364 94.5024 5.51283 94.2637 5.55988 94.0888C5.58755 93.9861 5.5156 93.8556 5.50176 93.739C5.34402 92.2095 5.07004 90.6856 5.05344 89.1505C4.98148 83.5987 4.90399 78.0469 5.00362 72.4952C5.13369 65.4028 5.42981 58.3131 5.65397 51.2235C5.67611 50.7044 5.69825 50.1881 5.71485 49.669C5.71201 49.6018 5.70368 49.535 5.68994 49.4692C5.68994 49.5386 5.67057 49.608 5.6678 49.6773C5.66504 50.1909 5.66227 50.7128 5.66227 51.2318Z" fill="#05CE91"/>
<path d="M86.9912 50.8877C86.9912 50.3797 86.9912 49.8745 86.9912 49.3665C86.9935 49.2977 87 49.2292 87.0106 49.1611C87.0243 49.2251 87.0327 49.2901 87.0355 49.3554C87.0189 49.8634 86.9967 50.3686 86.9746 50.8766L86.9912 50.8877Z" fill="white"/>
<path d="M18.1675 50.0131C18.1675 24.9718 38.4804 4.57456 63.4315 4.61064C88.8918 4.64673 108.817 25.4132 108.729 50.2629C108.635 75.171 88.3687 95.4433 63.3955 95.4377C38.4223 95.4322 18.173 75.1016 18.1675 50.0131ZM63.4481 16.5914C44.8538 16.6774 30.239 31.6534 30.156 49.7438C30.0785 68.4811 44.934 83.4515 63.4398 83.4431C67.8127 83.4479 72.1436 82.5883 76.1852 80.9135C80.2268 79.2388 83.8998 76.7816 86.9943 73.6825C90.0889 70.5834 92.5443 66.9031 94.2203 62.8518C95.8964 58.8005 96.7602 54.4576 96.7623 50.0714C96.7596 31.5645 81.8404 16.5747 63.4481 16.5914Z" fill="#05CE91"/>
<path d="M63.4479 16.5969C81.854 16.5969 96.7732 31.5867 96.776 50.0797C96.7734 54.4682 95.9085 58.8132 94.2306 62.8661C92.5527 66.919 90.0948 70.6005 86.9974 73.6999C83.9 76.7993 80.2239 79.2558 76.1792 80.9291C72.1346 82.6023 67.8008 83.4595 63.4257 83.4514C44.92 83.4514 30.0644 68.4894 30.1419 49.7521C30.2139 31.6617 44.8397 16.6858 63.4479 16.5969ZM63.4811 79.815C67.3902 79.8137 71.2604 79.0368 74.869 77.5291C78.4776 76.0215 81.7533 73.8128 84.5076 71.0303C87.2618 68.2478 89.4402 64.9463 90.9174 61.3159C92.3945 57.6856 93.1413 53.798 93.1147 49.8771C93.0593 33.3938 79.7093 20.1973 63.1462 20.2611C46.9208 20.3194 33.698 33.7936 33.7617 50.2018C33.8364 66.5546 47.2003 79.89 63.4672 79.815H63.4811Z" fill="white"/>
<path d="M63.467 79.8012C47.2001 79.8762 33.8279 66.5408 33.7615 50.188C33.6978 33.7798 46.9206 20.3056 63.146 20.2473C79.709 20.1835 93.0591 33.38 93.1144 49.8633C93.1411 53.7854 92.3939 57.6741 90.9158 61.3054C89.4378 64.9366 87.2582 68.2387 84.5025 71.0214C81.7468 73.8041 78.4694 76.0125 74.8592 77.5193C71.249 79.0261 67.3773 79.8017 63.467 79.8012ZM63.2262 74.8463C64.2862 74.7741 65.1053 74.7435 65.9189 74.6603C71.7997 74.0667 77.2727 71.3751 81.3419 67.0754C85.4112 62.7756 87.8063 57.1534 88.0915 51.2318C88.1746 49.5329 87.9393 47.8146 87.8369 46.1047C87.8059 45.9238 87.7548 45.7469 87.6847 45.5773C87.6626 45.7688 87.6321 45.9604 87.6238 46.1519C87.5602 47.4871 87.6045 48.839 87.4246 50.1575C86.3453 58.0327 82.5871 64.3478 76.1861 69.0169C71.2407 72.6255 65.6699 74.3521 59.5345 74.2772C59.3767 74.2772 59.2162 74.2911 59.0557 74.2994C59.2104 74.3855 59.3762 74.45 59.5483 74.4909C60.849 74.6353 62.1552 74.7435 63.2262 74.8463Z" fill="#05CE91"/>
<g clip-path="url(#clip1_441_508)">
<path d="M62.7959 32.3364V65.9859" stroke="white" stroke-width="3" stroke-linecap="round" stroke-linejoin="round"/>
<path d="M70.4439 38.4546H58.9725C57.5527 38.4546 56.191 39.0186 55.1871 40.0225C54.1831 41.0265 53.6191 42.3881 53.6191 43.8079C53.6191 45.2277 54.1831 46.5893 55.1871 47.5933C56.191 48.5972 57.5527 49.1612 58.9725 49.1612H66.6201C68.0398 49.1612 69.4015 49.7252 70.4054 50.7292C71.4094 51.7331 71.9734 53.0948 71.9734 54.5146C71.9734 55.9343 71.4094 57.296 70.4054 58.2999C69.4015 59.3039 68.0398 59.8679 66.6201 59.8679H53.6191" stroke="white" stroke-width="3" stroke-linecap="round" stroke-linejoin="round"/>
</g>
</g>
<defs>
<clipPath id="clip0_441_508">
<rect width="124" height="98" fill="white" transform="translate(0 0.471924)"/>
</clipPath>
<clipPath id="clip1_441_508">
<rect width="36.7085" height="36.7085" fill="white" transform="translate(45.4419 30.8069)"/>
</clipPath>
</defs>
</svg>
