<svg width="147" height="175" viewBox="0 0 147 175" fill="none" xmlns="http://www.w3.org/2000/svg">
<g clip-path="url(#clip0_788_173)">
<path d="M104.54 146.491L105.994 174.473C105.994 174.473 44.4873 115.799 36.8246 98.6315C29.162 81.4642 43.5858 38.9976 43.5858 38.9976L75.5886 56.6167L104.54 146.491Z" fill="#FFB9B9"/>
<path d="M10.2309 27.2515L0.765234 28.155C0.765234 28.155 -4.19297 38.9976 11.1324 39.9011L10.2309 27.2515Z" fill="#FFB9B9"/>
<path d="M10.2309 43.967L0.765234 44.8706C0.765234 44.8706 -4.19297 55.7131 11.1324 56.6167L10.2309 43.967Z" fill="#FFB9B9"/>
<path d="M10.2309 62.0381L0.765234 62.9416C0.765234 62.9416 -4.19297 73.7842 11.1324 74.6877L10.2309 62.0381Z" fill="#FFB9B9"/>
<path d="M12.9354 80.1089L3.46982 81.0124C3.46982 81.0124 -1.48838 91.855 13.8369 92.7585L12.9354 80.1089Z" fill="#FFB9B9"/>
<path d="M5.62256 31.6074H6.34079V11.8869C6.34079 10.388 6.63534 8.90379 7.20762 7.51902C7.77991 6.13424 8.61872 4.87601 9.67616 3.81615C10.7336 2.75628 11.989 1.91556 13.3706 1.34197C14.7522 0.768373 16.233 0.473146 17.7285 0.473145H59.414C60.9095 0.473141 62.3903 0.768363 63.7719 1.34195C65.1535 1.91554 66.4089 2.75627 67.4663 3.81612C68.5238 4.87598 69.3626 6.13421 69.9349 7.51898C70.5072 8.90375 70.8017 10.3879 70.8017 11.8868V120.075C70.8017 121.574 70.5072 123.058 69.9349 124.443C69.3626 125.828 68.5238 127.086 67.4664 128.146C66.4089 129.206 65.1535 130.046 63.7719 130.62C62.3903 131.194 60.9095 131.489 59.414 131.489H17.7286C14.7083 131.489 11.8118 130.286 9.67621 128.146C7.54059 126.005 6.34081 123.102 6.3408 120.075V45.6447H5.62256V31.6074Z" fill="#3F3D56"/>
<path d="M17.2694 3.44264H22.7107C22.4605 4.05753 22.365 4.72465 22.4326 5.38526C22.5002 6.04586 22.7288 6.67967 23.0984 7.23083C23.468 7.782 23.9671 8.23362 24.5518 8.5459C25.1366 8.85818 25.7889 9.02154 26.4515 9.02159H50.3326C50.9951 9.02155 51.6475 8.85819 52.2323 8.5459C52.817 8.23362 53.3161 7.78201 53.6857 7.23084C54.0553 6.67967 54.2839 6.04587 54.3515 5.38526C54.4191 4.72465 54.3236 4.05752 54.0734 3.44263H59.1556C61.4111 3.44262 63.5741 4.34064 65.169 5.93913C66.7638 7.53762 67.6598 9.70563 67.6598 11.9662V119.996C67.6598 121.115 67.4399 122.223 67.0125 123.258C66.5851 124.292 65.9587 125.231 65.169 126.023C64.3793 126.814 63.4418 127.442 62.41 127.871C61.3783 128.299 60.2724 128.519 59.1556 128.519H17.2694C16.1526 128.519 15.0467 128.299 14.0149 127.871C12.9832 127.442 12.0457 126.814 11.256 126.023C10.4663 125.231 9.83986 124.292 9.41248 123.258C8.9851 122.224 8.76514 121.115 8.76514 119.996V11.9662C8.76514 10.8469 8.9851 9.73853 9.41248 8.7044C9.83986 7.67027 10.4663 6.73063 11.256 5.93914C12.0457 5.14765 12.9832 4.5198 14.0149 4.09145C15.0467 3.6631 16.1526 3.44263 17.2694 3.44264Z" fill="white"/>
<path d="M47.1864 33.707H29.2383V38.048H47.1864V33.707Z" fill="#05CE91"/>
<path d="M48.0408 52.3599H28.3838V56.7008H48.0408V52.3599Z" fill="#E5E5E5"/>
<path d="M60.1485 61.6848H16.2759V66.0257H60.1485V61.6848Z" fill="#E5E5E5"/>
<path d="M60.1485 71.0095H16.2759V75.3504H60.1485V71.0095Z" fill="#E5E5E5"/>
<path d="M147 161.065L96.5484 103.375L94.7455 66.3298L75.8142 34.7058L70.4053 21.1526C70.4053 21.1526 57.7844 22.5079 68.1515 48.2589L72.4336 62.038C68.5736 70.3707 66.5739 79.4471 66.5739 88.6342V120.209C66.5739 127.644 101.923 168.141 106.038 174.327L147 161.065Z" fill="#FFB9B9"/>
<path opacity="0.2" d="M71.8894 37.3856L75.6529 35.5318L75.5247 35.2701L72.0473 36.9831L66.798 23.1892L66.5264 23.2933L71.8894 37.3856Z" fill="black"/>
<path opacity="0.2" d="M0.815869 28.0177L0.715332 28.2913L6.29061 30.3497L6.39115 30.0761L0.815869 28.0177Z" fill="black"/>
<path opacity="0.2" d="M0.815869 44.924L0.715332 45.1975L6.29061 47.2559L6.39115 46.9824L0.815869 44.924Z" fill="black"/>
<path opacity="0.2" d="M0.815869 62.9957L0.715332 63.2693L6.29061 65.3277L6.39115 65.0542L0.815869 62.9957Z" fill="black"/>
<path opacity="0.2" d="M3.73665 81.0732L3.61084 81.3359L6.32521 82.6417L6.45102 82.379L3.73665 81.0732Z" fill="black"/>
<path d="M38.2343 112.813C45.1777 112.813 50.8064 107.171 50.8064 100.212C50.8064 93.2527 45.1777 87.6111 38.2343 87.6111C31.2909 87.6111 25.6621 93.2527 25.6621 100.212C25.6621 107.171 31.2909 112.813 38.2343 112.813Z" fill="#05CE91"/>
<path d="M35.9965 105.526L32.2339 100.676L34.422 98.9705L36.2036 101.267L42.2227 94.8982L44.2355 96.8094L35.9965 105.526Z" fill="white"/>
</g>
<defs>
<clipPath id="clip0_788_173">
<rect width="147" height="174" fill="white" transform="translate(0 0.473145)"/>
</clipPath>
</defs>
</svg>
